<?xml version="1.0" standalone="no"?>
<!DOCTYPE svg PUBLIC "-//W3C//DTD SVG 20010904//EN"
 "http://www.w3.org/TR/2001/REC-SVG-20010904/DTD/svg10.dtd">
<svg version="1.0" xmlns="http://www.w3.org/2000/svg"
 width="64.000000pt" height="64.000000pt" viewBox="0 0 64.000000 64.000000"
 preserveAspectRatio="xMidYMid meet">

<g transform="translate(0.000000,64.000000) scale(0.100000,-0.100000)"
fill="#000000" stroke="none">
<path d="M22 548 c-2 -55 9 -81 24 -57 4 8 3 9 -4 5 -7 -4 -12 12 -15 51 l-3
58 -2 -57z"/>
<path d="M72 559 c-1 -31 3 -51 13 -59 10 -9 15 -9 15 -1 0 6 -4 11 -9 11 -6
0 -12 21 -14 48 l-3 47 -2 -46z"/>
<path d="M160 596 c0 -2 8 -10 18 -17 15 -13 16 -12 3 4 -13 16 -21 21 -21 13z"/>
<path d="M232 547 c-1 -41 -5 -56 -14 -51 -7 5 -8 3 -3 -5 15 -25 26 6 22 60
l-3 54 -2 -58z"/>
<path d="M311 543 c1 -62 6 -56 11 15 2 23 0 42 -4 42 -5 0 -7 -26 -7 -57z"/>
<path d="M390 560 c0 -18 7 -20 85 -20 l85 0 0 -150 c0 -143 1 -150 20 -150
19 0 20 7 20 170 l0 170 -105 0 c-98 0 -105 -1 -105 -20z"/>
<path d="M177 533 c-4 -3 -7 -11 -7 -17 0 -6 5 -5 12 2 6 6 9 14 7 17 -3 3 -9
2 -12 -2z"/>
<path d="M305 431 c-3 -5 -20 -7 -38 -5 -39 7 -87 -10 -87 -30 0 -14 58 -70
81 -78 20 -7 2 -58 -21 -58 -30 0 -36 -21 -11 -41 12 -10 21 -21 21 -24 -1 -3
1 -11 3 -18 4 -9 7 -9 18 1 7 6 20 12 28 12 9 0 23 4 31 10 12 7 11 12 -5 30
-30 33 -10 54 58 60 30 3 59 8 62 12 15 15 -6 57 -37 77 -18 11 -39 29 -46 40
-13 22 -46 28 -57 12z"/>
<path d="M30 245 l0 -175 120 0 120 0 0 25 0 25 -100 0 -100 0 0 150 c0 143
-1 150 -20 150 -19 0 -20 -7 -20 -175z"/>
<path d="M353 100 c0 -36 2 -53 4 -37 2 15 8 25 12 23 3 -3 7 4 7 14 0 10 -4
17 -7 14 -4 -2 -10 8 -12 23 -2 16 -4 -1 -4 -37z"/>
<path d="M403 110 c0 -30 2 -43 4 -28 2 16 2 40 0 55 -2 16 -4 3 -4 -27z"/>
<path d="M453 105 c0 -33 2 -45 4 -27 2 18 2 45 0 60 -2 15 -4 0 -4 -33z"/>
<path d="M491 103 c0 -35 2 -63 7 -63 4 0 6 21 4 48 -5 75 -10 82 -11 15z"/>
<path d="M531 108 c0 -31 2 -59 7 -61 4 -3 6 16 4 41 -5 73 -10 82 -11 20z"/>
<path d="M590 125 c-8 -34 -8 -75 0 -75 6 0 10 8 11 18 1 11 4 9 9 -8 7 -21 8
-17 8 20 1 32 -2 39 -7 25 -8 -19 -9 -18 -13 5 -3 14 -6 21 -8 15z"/>
</g>
</svg>
